<svg xmlns="http://www.w3.org/2000/svg" width="55" height="55" viewBox="0 0 55 55">
  <g id="ic-wp" transform="translate(0 0.199)">
    <circle id="Elipse_19" data-name="Elipse 19" cx="27.5" cy="27.5" r="27.5" transform="translate(0 -0.199)" fill="#fff"/>
    <g id="XMLID_77_" transform="translate(13.253 12.448)">
      <g id="XMLID_78_" transform="translate(0 0)">
        <g id="XMLID_81_">
          <path id="XMLID_82_" d="M31.9,15.8A14.111,14.111,0,0,0,17.8,29.9a13.893,13.893,0,0,0,2.259,7.663L17.922,42.3a1.282,1.282,0,0,0,.183,1.313,1.363,1.363,0,0,0,1.282.4l5.923-1.618A14.124,14.124,0,1,0,31.9,15.8Zm0,25.767a11.567,11.567,0,0,1-5.862-1.588,1.1,1.1,0,0,0-.611-.183,1.252,1.252,0,0,0-.336.031L21.219,40.9l1.343-2.961a1.245,1.245,0,0,0-.122-1.221,11.541,11.541,0,0,1-2.2-6.808A11.662,11.662,0,1,1,31.9,41.567Z" transform="translate(-17.8 -15.8)" fill="#0b206a" fill-rule="evenodd"/>
        </g>
        <g id="XMLID_79_" transform="translate(7.295 7.686)">
          <path id="XMLID_80_" d="M53.939,49.5a2.294,2.294,0,0,0-2.045-.458c-.519.214-.885,1.069-1.221,1.5a.557.557,0,0,1-.672.153,9.239,9.239,0,0,1-4.641-3.969.608.608,0,0,1,.061-.794,3.261,3.261,0,0,0,.855-1.374,3.006,3.006,0,0,0-.366-1.618,3.68,3.68,0,0,0-1.191-1.8,1.6,1.6,0,0,0-1.771.275A3.59,3.59,0,0,0,41.7,44.28a3.151,3.151,0,0,0,.122.916,7.372,7.372,0,0,0,.885,2.015,10.747,10.747,0,0,0,.916,1.374,14.068,14.068,0,0,0,3.938,3.664,12.186,12.186,0,0,0,2.473,1.16,5.814,5.814,0,0,0,2.87.458,3.473,3.473,0,0,0,2.6-1.923,1.811,1.811,0,0,0,.122-.977C55.4,50.233,54.488,49.836,53.939,49.5Z" transform="translate(-41.695 -40.975)" fill="#0b206a" fill-rule="evenodd"/>
        </g>
      </g>
    </g>
  </g>
</svg>
