<svg xmlns="http://www.w3.org/2000/svg" width="55" height="55" viewBox="0 0 55 55">
  <g id="ic_instagram" transform="translate(-0.15 0.199)">
    <circle id="Elipse_4" data-name="Elipse 4" cx="27.5" cy="27.5" r="27.5" transform="translate(0.15 -0.199)" fill="#fff"/>
    <g id="iconfinder_INSTAGRAM_1217174" transform="translate(13.561 13.56)">
      <path id="Caminho_1" data-name="Caminho 1" d="M36.534,22.733c0,2,.006,3.994,0,6A7.421,7.421,0,0,1,32.762,35.3a8.6,8.6,0,0,1-4.641,1.272c-3.637,0-7.269.017-10.906-.006a8.458,8.458,0,0,1-6.427-2.784A7.158,7.158,0,0,1,8.9,29.673a8.545,8.545,0,0,1-.045-1q0-5.966,0-11.933a7.439,7.439,0,0,1,3.777-6.572A8.642,8.642,0,0,1,17.3,8.9c3.626,0,7.252-.017,10.878.006a8.453,8.453,0,0,1,6.443,2.8,7.134,7.134,0,0,1,1.863,4.084,16.833,16.833,0,0,1,.045,1.835C36.539,19.33,36.534,21.031,36.534,22.733Zm-25.606,0c0,2.047-.006,4.089,0,6.136a5.12,5.12,0,0,0,1.478,3.621A6.387,6.387,0,0,0,17.148,34.5c3.665.022,7.325.006,10.99.006a6.572,6.572,0,0,0,3.336-.848,5.442,5.442,0,0,0,3-4.982V16.6A5.061,5.061,0,0,0,33.013,13a6.349,6.349,0,0,0-4.731-2.025c-3.7-.028-7.4-.011-11.107-.011a6.5,6.5,0,0,0-3.252.842,5.452,5.452,0,0,0-3,4.987Z" transform="translate(-8.856 -8.892)" fill="#0b206a"/>
      <path id="Caminho_2" data-name="Caminho 2" d="M147.488,145.831a6.416,6.416,0,1,1,6.51-6.388A6.451,6.451,0,0,1,147.488,145.831Zm0-2.064a4.352,4.352,0,1,0-4.424-4.362A4.4,4.4,0,0,0,147.488,143.767Z" transform="translate(-133.628 -126.076)" fill="#0b206a"/>
      <path id="Caminho_3" data-name="Caminho 3" d="M363,99.428a1.368,1.368,0,1,1,1.378,1.417A1.394,1.394,0,0,1,363,99.428Z" transform="translate(-343.244 -93.029)" fill="#0b206a"/>
    </g>
  </g>
</svg>
