<?xml version="1.0" encoding="utf-8"?>
<!-- Generator: Adobe Illustrator 28.0.0, SVG Export Plug-In . SVG Version: 6.00 Build 0)  -->
<svg version="1.1" id="Grupo_211" xmlns="http://www.w3.org/2000/svg" xmlns:xlink="http://www.w3.org/1999/xlink" x="0px" y="0px"
	 viewBox="0 0 261 66.8" style="enable-background:new 0 0 261 66.8;" xml:space="preserve">
<style type="text/css">
	.st0{fill:#FFFFFF;}
	.st1{fill-rule:evenodd;clip-rule:evenodd;fill:#FFFFFF;}
	.st2{fill:none;stroke:#333333;stroke-width:0.5669;stroke-miterlimit:22.9265;}
	.st3{fill-rule:evenodd;clip-rule:evenodd;fill:#2A2F34;}
</style>
<g>
	<path class="st0" d="M77.2,42c0.1-0.1,0.1-0.2,0.1-0.3v-7.8h2c1.6,0,3-0.2,4.2-0.6c1.2-0.4,2.2-0.9,3-1.6s1.4-1.6,1.9-2.7
		c0.4-1.1,0.6-2.3,0.6-3.6c0-1-0.1-1.9-0.4-2.7c-0.3-0.8-0.7-1.5-1.2-2.1c-0.5-0.6-1.2-1.1-1.9-1.5c-0.7-0.4-1.5-0.7-2.2-0.8
		s-1.4-0.2-1.9-0.3c-0.5,0-1.1-0.1-1.6-0.1h-5.7c-0.5,0-0.9,0.1-1.2,0.4s-0.5,0.7-0.5,1.3v21.9c0,0.1,0,0.2,0.1,0.3s0.2,0.2,0.4,0.2
		c0.2,0.1,0.4,0.1,0.8,0.2c0.3,0,0.7,0.1,1.2,0.1c0.5,0,0.9,0,1.2-0.1c0.3,0,0.6-0.1,0.8-0.2C77,42.2,77.1,42.1,77.2,42z M77.3,21.8
		h2.1c0.5,0,1,0,1.5,0.1c0.5,0.1,0.9,0.2,1.4,0.5c0.4,0.3,0.8,0.7,1.1,1.2c0.3,0.6,0.5,1.3,0.5,2.1c0,0.6-0.1,1.2-0.3,1.7
		s-0.4,1-0.8,1.4c-0.3,0.4-0.8,0.7-1.3,0.9c-0.5,0.2-1.2,0.3-2,0.3h-2.2V21.8z"/>
	<path class="st0" d="M104.4,42.5c0.4,0,0.9,0,1.5,0c0.6,0,1.1,0,1.4,0c0.4,0,0.6-0.1,0.7-0.2c0.1-0.1,0.2-0.3,0.2-0.6
		c0-0.3-0.1-0.6-0.3-1.1l-7.5-21.6c-0.1-0.2-0.2-0.4-0.3-0.6c-0.1-0.1-0.3-0.2-0.5-0.3c-0.2-0.1-0.6-0.1-1-0.1c-0.4,0-1,0-1.8,0
		c-0.6,0-1.2,0-1.5,0c-0.4,0-0.7,0.1-0.9,0.1c-0.2,0.1-0.4,0.2-0.5,0.3s-0.2,0.3-0.3,0.5l-7.5,21.6c-0.2,0.4-0.2,0.8-0.3,1.1
		c0,0.3,0,0.5,0.1,0.6c0.1,0.1,0.4,0.2,0.7,0.3c0.3,0,0.8,0.1,1.4,0.1c0.5,0,1,0,1.3,0s0.6-0.1,0.8-0.1c0.2-0.1,0.3-0.2,0.4-0.3
		c0.1-0.1,0.1-0.3,0.2-0.4l1.5-4.8h9.1l1.6,4.9c0,0.2,0.1,0.3,0.2,0.4s0.2,0.2,0.4,0.2C103.8,42.4,104.1,42.4,104.4,42.5z M93.3,33
		l3.4-10.4h0l3.4,10.4H93.3z"/>
	<path class="st0" d="M109.7,42.3c0.2,0.1,0.4,0.1,0.8,0.2c0.3,0,0.7,0.1,1.2,0.1c0.5,0,0.9,0,1.2-0.1c0.3,0,0.6-0.1,0.8-0.2
		c0.2-0.1,0.3-0.1,0.4-0.2s0.1-0.2,0.1-0.3v-9.3h1.5c0.5,0,1,0.1,1.4,0.2s0.8,0.4,1.1,0.7c0.3,0.3,0.6,0.7,0.8,1.2
		c0.3,0.5,0.5,1,0.8,1.6l2.2,5.4c0,0.2,0.1,0.3,0.2,0.4c0.1,0.1,0.2,0.2,0.4,0.3c0.2,0.1,0.4,0.1,0.7,0.1c0.3,0,0.7,0,1.3,0
		c0.6,0,1.1,0,1.5,0c0.4,0,0.6-0.1,0.8-0.1c0,0,0,0,0,0c0.1,0.1,0.3,0.1,0.4,0.1c0.3,0,0.8,0.1,1.4,0.1c0.5,0,1,0,1.3,0
		c0.3,0,0.6-0.1,0.8-0.1c0.2-0.1,0.3-0.2,0.4-0.3c0.1-0.1,0.1-0.3,0.2-0.4l1.5-4.8h9.1l1.6,4.9c0,0.2,0.1,0.3,0.2,0.4
		s0.2,0.2,0.4,0.2s0.5,0.1,0.8,0.1c0.4,0,0.9,0,1.5,0c0.6,0,1.1,0,1.4,0s0.6-0.1,0.7-0.2c0.1-0.1,0.2-0.3,0.2-0.6
		c0-0.3-0.1-0.6-0.3-1.1L141,18.9c-0.1-0.2-0.2-0.4-0.3-0.6c-0.1-0.1-0.3-0.2-0.5-0.3c-0.2-0.1-0.6-0.1-1-0.1c-0.4,0-1,0-1.8,0
		c-0.6,0-1.2,0-1.5,0c-0.4,0-0.7,0.1-0.9,0.1c-0.2,0.1-0.4,0.2-0.5,0.3c-0.1,0.1-0.2,0.3-0.3,0.5l-7.4,21.4c0,0,0-0.1,0-0.1
		l-2.1-4.8c-0.2-0.6-0.5-1.1-0.7-1.6c-0.3-0.5-0.5-0.9-0.8-1.2c-0.3-0.4-0.6-0.7-0.9-0.9c-0.3-0.3-0.7-0.5-1-0.6
		c0.8-0.2,1.4-0.6,2-0.9c0.6-0.4,1.1-0.8,1.5-1.4c0.4-0.5,0.7-1.1,0.9-1.8c0.2-0.7,0.3-1.4,0.3-2.2c0-1-0.1-1.8-0.4-2.6
		c-0.3-0.7-0.7-1.4-1.3-1.9s-1.2-1-2-1.3s-1.7-0.6-2.6-0.7c-0.3,0-0.7-0.1-1.1-0.1c-0.4,0-0.9,0-1.6,0h-6.3c-0.4,0-0.8,0.1-1,0.4
		c-0.3,0.2-0.4,0.6-0.4,1.2v22.1c0,0.1,0,0.2,0.1,0.3S109.5,42.2,109.7,42.3z M137.4,22.7L137.4,22.7l3.5,10.4h-6.9L137.4,22.7z
		 M114.1,21.8h2.2c0.6,0,1,0,1.3,0.1c0.3,0,0.6,0.1,0.9,0.2c0.8,0.2,1.4,0.6,1.8,1.2c0.4,0.6,0.5,1.2,0.5,2c0,0.5-0.1,1-0.3,1.4
		s-0.4,0.8-0.8,1.1c-0.4,0.3-0.8,0.5-1.3,0.7c-0.5,0.2-1.1,0.3-1.8,0.3h-2.5V21.8z"/>
	<path class="st0" d="M151.3,39.5c1.1,1.1,2.4,1.9,3.9,2.4c1.5,0.6,3.3,0.8,5.2,0.8c0.7,0,1.3,0,2-0.1c0.7-0.1,1.3-0.2,2-0.3
		c0.6-0.1,1.3-0.3,1.9-0.5c0.6-0.2,1.1-0.3,1.5-0.5c0.4-0.2,0.7-0.4,0.8-0.7c0.1-0.3,0.2-0.6,0.2-1v-9.7c0-0.3,0-0.5-0.1-0.7
		c-0.1-0.2-0.2-0.4-0.3-0.5c-0.1-0.1-0.3-0.2-0.4-0.3c-0.2-0.1-0.3-0.1-0.5-0.1h-8.2c-0.1,0-0.2,0-0.3,0.1c-0.1,0.1-0.2,0.2-0.2,0.3
		c-0.1,0.1-0.1,0.3-0.1,0.6s0,0.5,0,0.9c0,0.7,0.1,1.2,0.2,1.4s0.3,0.4,0.5,0.4h4.6v5.6c-0.5,0.3-1,0.4-1.5,0.6
		c-0.5,0.1-1.1,0.2-1.6,0.2c-1.1,0-2.2-0.2-3.1-0.5c-0.9-0.4-1.7-0.9-2.4-1.6c-0.7-0.7-1.2-1.6-1.6-2.7c-0.4-1.1-0.6-2.3-0.6-3.7
		c0-1.3,0.2-2.4,0.5-3.5c0.4-1,0.9-1.9,1.6-2.7c0.7-0.7,1.5-1.3,2.4-1.7c1-0.4,2-0.6,3.2-0.6c1.1,0,2.1,0.1,2.9,0.3
		c0.8,0.2,1.6,0.5,2.2,0.7c0.6,0.3,1.1,0.5,1.5,0.7c0.4,0.2,0.6,0.3,0.8,0.3c0.1,0,0.2,0,0.3-0.1c0.1-0.1,0.2-0.2,0.2-0.3
		s0.1-0.4,0.1-0.6s0-0.6,0-0.9c0-0.6,0-1.1-0.1-1.4c-0.1-0.3-0.2-0.6-0.4-0.7s-0.5-0.4-0.9-0.6c-0.4-0.2-1-0.5-1.6-0.7
		s-1.4-0.4-2.3-0.5c-0.9-0.1-1.8-0.2-2.9-0.2c-1.9,0-3.7,0.3-5.2,0.9s-2.9,1.4-4,2.6c-1.1,1.1-2,2.5-2.6,4c-0.6,1.6-0.9,3.4-0.9,5.4
		c0,1.9,0.3,3.7,0.8,5.2C149.4,37.2,150.2,38.5,151.3,39.5z"/>
	<path class="st0" d="M191.5,18.7c0-0.1,0-0.2-0.1-0.3c-0.1-0.1-0.2-0.2-0.4-0.2c-0.2-0.1-0.4-0.1-0.7-0.2c-0.3,0-0.7-0.1-1.2-0.1
		s-0.9,0-1.2,0.1c-0.3,0-0.6,0.1-0.8,0.2c-0.2,0.1-0.3,0.1-0.4,0.2c-0.1,0.1-0.1,0.2-0.1,0.3v14.7c0,0.9-0.1,1.6-0.3,2.3
		c-0.2,0.7-0.6,1.2-1,1.7c-0.4,0.5-0.9,0.8-1.6,1c-0.6,0.2-1.3,0.4-2.1,0.4c-0.8,0-1.5-0.1-2.1-0.3s-1.2-0.6-1.6-1
		c-0.4-0.5-0.8-1.1-1-1.8c-0.2-0.7-0.4-1.5-0.4-2.5V18.7c0-0.1,0-0.2-0.1-0.3c-0.1-0.1-0.2-0.2-0.4-0.2c-0.2-0.1-0.4-0.1-0.8-0.2
		c-0.3,0-0.7-0.1-1.2-0.1c-0.5,0-0.9,0-1.2,0.1c-0.3,0-0.6,0.1-0.8,0.2c-0.2,0.1-0.3,0.1-0.4,0.2c-0.1,0.1-0.1,0.2-0.1,0.3v14.8
		c0,1.6,0.2,2.9,0.7,4.1s1.1,2.1,1.9,2.9s1.9,1.4,3.1,1.7c1.2,0.4,2.6,0.6,4.1,0.6c1.6,0,3.1-0.2,4.3-0.6c1.3-0.4,2.3-1,3.2-1.9
		c0.9-0.8,1.5-1.8,1.9-3s0.7-2.5,0.7-4V18.7z"/>
	<path class="st0" d="M205.9,18.9c-0.1-0.2-0.2-0.4-0.3-0.6c-0.1-0.1-0.3-0.2-0.5-0.3c-0.2-0.1-0.6-0.1-1-0.1c-0.4,0-1,0-1.8,0
		c-0.6,0-1.2,0-1.5,0c-0.4,0-0.7,0.1-0.9,0.1c-0.2,0.1-0.4,0.2-0.5,0.3s-0.2,0.3-0.3,0.5l-7.5,21.6c-0.2,0.4-0.2,0.8-0.3,1.1
		s0,0.5,0.1,0.6c0.1,0.1,0.4,0.2,0.7,0.3c0.3,0,0.8,0.1,1.4,0.1c0.5,0,1,0,1.3,0s0.6-0.1,0.8-0.1c0.2-0.1,0.3-0.2,0.4-0.3
		c0.1-0.1,0.1-0.3,0.2-0.4l1.5-4.8h9.2l1.6,4.9c0,0.2,0.1,0.3,0.2,0.4c0.1,0.1,0.2,0.2,0.4,0.2c0.2,0.1,0.5,0.1,0.8,0.1
		c0.4,0,0.9,0,1.5,0c0.6,0,1.1,0,1.4,0s0.6-0.1,0.7-0.2c0.1-0.1,0.2-0.3,0.2-0.6c0-0.3-0.1-0.6-0.3-1.1L205.9,18.9z M198.8,33
		l3.4-10.4h0l3.4,10.4H198.8z"/>
	<path class="st0" d="M230.8,37c-0.1-0.2-0.1-0.3-0.2-0.3s-0.2-0.1-0.3-0.1c-0.2,0-0.4,0.1-0.7,0.3c-0.3,0.2-0.7,0.4-1.1,0.7
		c-0.5,0.3-1,0.5-1.7,0.7c-0.7,0.2-1.4,0.3-2.2,0.3c-1,0-1.8-0.2-2.6-0.5c-0.8-0.3-1.4-0.8-2-1.5c-0.5-0.7-1-1.5-1.3-2.6
		c-0.3-1-0.4-2.3-0.4-3.7c0-1.3,0.1-2.5,0.4-3.5c0.3-1,0.7-1.9,1.2-2.7c0.5-0.7,1.2-1.3,1.9-1.7s1.6-0.6,2.6-0.6
		c0.9,0,1.6,0.1,2.3,0.3c0.6,0.2,1.2,0.5,1.6,0.7c0.5,0.3,0.8,0.5,1.1,0.7c0.3,0.2,0.5,0.3,0.7,0.3c0.1,0,0.2,0,0.3-0.1
		s0.2-0.2,0.2-0.4c0.1-0.2,0.1-0.4,0.1-0.6s0-0.6,0-1c0-0.4,0-0.6,0-0.9s0-0.4-0.1-0.6c0-0.2-0.1-0.3-0.2-0.4
		c-0.1-0.1-0.2-0.3-0.3-0.4c-0.2-0.2-0.5-0.4-0.9-0.6c-0.4-0.2-0.9-0.4-1.4-0.6s-1.1-0.3-1.7-0.4c-0.6-0.1-1.3-0.2-2-0.2
		c-1.7,0-3.2,0.3-4.6,0.8s-2.6,1.4-3.6,2.5c-1,1.1-1.8,2.4-2.3,4c-0.6,1.6-0.8,3.4-0.8,5.5c0,2,0.3,3.8,0.8,5.3
		c0.5,1.5,1.2,2.8,2.1,3.7c0.9,0.9,1.8,1.7,2.8,2.1s2.1,0.8,3.1,0.9l0.6,1.4c0.1,0.2,0.2,0.4,0.2,0.6c0.1,0.2,0.1,0.4,0.1,0.5
		c0,0.3-0.1,0.5-0.3,0.6S222,46,221.6,46h-2.2c-0.3,0-0.4,0.1-0.5,0.3c-0.1,0.2-0.1,0.5-0.1,1c0,0.3,0,0.5,0,0.6
		c0,0.2,0.1,0.3,0.1,0.4s0.2,0.2,0.3,0.2c0.1,0.1,0.4,0.1,0.7,0.2c0.3,0.1,0.7,0.2,1.2,0.2s1,0.1,1.5,0.1c0.6,0,1.1-0.1,1.6-0.2
		c0.5-0.1,0.9-0.3,1.3-0.6s0.7-0.6,0.9-1c0.2-0.4,0.3-0.9,0.3-1.5c0-0.3-0.1-0.7-0.2-1.1c-0.1-0.4-0.3-0.8-0.5-1.3l-0.4-0.9
		c0.4,0,0.9-0.1,1.4-0.2c0.5-0.1,1-0.3,1.4-0.4c0.5-0.2,0.9-0.4,1.3-0.6c0.4-0.2,0.7-0.4,0.8-0.6c0.1-0.1,0.2-0.3,0.3-0.4
		c0.1-0.1,0.1-0.2,0.2-0.4c0-0.2,0.1-0.3,0.1-0.6s0-0.5,0-0.8c0-0.5,0-0.8,0-1.1C230.9,37.3,230.9,37.1,230.8,37z"/>
	<path class="st0" d="M252.1,18.4c-0.1-0.1-0.2-0.2-0.4-0.2c-0.2-0.1-0.4-0.1-0.7-0.2c-0.3,0-0.7-0.1-1.2-0.1c-0.5,0-0.9,0-1.2,0.1
		c-0.3,0-0.6,0.1-0.8,0.2c-0.2,0.1-0.3,0.1-0.4,0.2c-0.1,0.1-0.1,0.2-0.1,0.3v14.7c0,0.9-0.1,1.6-0.3,2.3c-0.2,0.7-0.6,1.2-1,1.7
		c-0.4,0.5-0.9,0.8-1.6,1c-0.6,0.2-1.3,0.4-2.1,0.4c-0.8,0-1.5-0.1-2.1-0.3c-0.6-0.2-1.2-0.6-1.6-1c-0.4-0.5-0.8-1.1-1-1.8
		c-0.2-0.7-0.4-1.5-0.4-2.5V18.7c0-0.1,0-0.2-0.1-0.3c-0.1-0.1-0.2-0.2-0.4-0.2c-0.2-0.1-0.4-0.1-0.8-0.2c-0.3,0-0.7-0.1-1.2-0.1
		c-0.5,0-0.9,0-1.2,0.1c-0.3,0-0.6,0.1-0.8,0.2c-0.2,0.1-0.3,0.1-0.4,0.2c-0.1,0.1-0.1,0.2-0.1,0.3v14.8c0,1.6,0.2,2.9,0.7,4.1
		c0.4,1.2,1.1,2.1,1.9,2.9c0.8,0.8,1.9,1.4,3.1,1.7c1.2,0.4,2.6,0.6,4.1,0.6c1.6,0,3.1-0.2,4.3-0.6c1.3-0.4,2.3-1,3.2-1.9
		c0.9-0.8,1.5-1.8,1.9-3s0.7-2.5,0.7-4V18.7C252.2,18.6,252.1,18.5,252.1,18.4z"/>
	<path class="st0" d="M74.8,47.2c-0.1,0-0.2-0.1-0.4-0.1c-0.2,0-0.4,0-0.6,0c-0.3,0-0.5,0-0.6,0c-0.2,0-0.3,0-0.4,0.1
		s-0.2,0.1-0.2,0.1c0,0.1-0.1,0.1-0.1,0.2v12.2c0,0.1,0,0.1,0.1,0.2c0,0.1,0.1,0.1,0.2,0.1s0.2,0.1,0.4,0.1c0.2,0,0.4,0,0.6,0
		c0.3,0,0.5,0,0.6,0c0.2,0,0.3,0,0.4-0.1c0.1,0,0.2-0.1,0.2-0.1s0.1-0.1,0.1-0.2V47.5c0-0.1,0-0.1-0.1-0.2
		C74.9,47.2,74.9,47.2,74.8,47.2z"/>
	<path class="st0" d="M84.4,51.3c-0.3-0.3-0.6-0.6-1-0.8c-0.4-0.2-0.9-0.3-1.5-0.3c-0.6,0-1.1,0.1-1.6,0.4s-1,0.7-1.5,1.2v-1
		c0-0.1,0-0.1,0-0.2s-0.1-0.1-0.2-0.1c-0.1,0-0.2-0.1-0.3-0.1s-0.3,0-0.5,0c-0.2,0-0.4,0-0.5,0c-0.1,0-0.2,0-0.3,0.1
		s-0.1,0.1-0.2,0.1s0,0.1,0,0.2v8.9c0,0.1,0,0.1,0.1,0.2c0,0,0.1,0.1,0.2,0.1c0.1,0,0.2,0.1,0.4,0.1s0.4,0,0.6,0c0.2,0,0.4,0,0.6,0
		s0.3,0,0.4-0.1s0.2-0.1,0.2-0.1s0.1-0.1,0.1-0.2v-5.9c0.4-0.4,0.7-0.8,1-1c0.3-0.2,0.6-0.3,1-0.3c0.3,0,0.5,0,0.7,0.1
		c0.2,0.1,0.3,0.2,0.5,0.4c0.1,0.2,0.2,0.4,0.3,0.6c0.1,0.2,0.1,0.6,0.1,1v5.1c0,0.1,0,0.1,0.1,0.2c0,0,0.1,0.1,0.2,0.1
		c0.1,0,0.2,0.1,0.4,0.1s0.4,0,0.6,0c0.2,0,0.4,0,0.6,0s0.3,0,0.4-0.1s0.2-0.1,0.2-0.1s0.1-0.1,0.1-0.2v-5.5c0-0.6-0.1-1.2-0.2-1.7
		S84.7,51.7,84.4,51.3z"/>
	<path class="st0" d="M94.3,51.3c0-0.1,0-0.1,0-0.2c0-0.1,0-0.1,0-0.2c0,0,0-0.1,0-0.1c0-0.1,0-0.1,0-0.2c0,0-0.1-0.1-0.2-0.1
		c-0.1,0-0.2-0.1-0.4-0.1c-0.2,0-0.4,0-0.6,0c-0.3,0-0.5,0-0.6,0s-0.3,0-0.4,0.1S92,50.6,92,50.6s-0.1,0.1-0.1,0.2l-2,6.5l-0.1,0.2
		l-0.1-0.2l-2-6.5c0-0.1-0.1-0.1-0.1-0.2s-0.1-0.1-0.2-0.1c-0.1,0-0.2-0.1-0.4-0.1c-0.2,0-0.4,0-0.7,0c-0.2,0-0.5,0-0.6,0
		c-0.2,0-0.3,0-0.4,0.1s-0.2,0.1-0.2,0.1s-0.1,0.1-0.1,0.2c0,0,0,0.1,0,0.1c0,0,0,0.1,0,0.2s0.1,0.2,0.1,0.4l2.7,8.1
		c0,0.1,0.1,0.2,0.1,0.3c0.1,0.1,0.1,0.1,0.3,0.2s0.3,0.1,0.5,0.1c0.2,0,0.5,0,0.9,0c0.4,0,0.7,0,0.9,0c0.2,0,0.4,0,0.5-0.1
		s0.2-0.1,0.3-0.2c0.1-0.1,0.1-0.2,0.1-0.3l2.7-8.1C94.3,51.4,94.3,51.3,94.3,51.3z"/>
	<path class="st0" d="M101.8,51.5c-0.3-0.4-0.8-0.7-1.3-0.9s-1.2-0.3-1.9-0.3c-0.7,0-1.3,0.1-1.9,0.3s-1,0.6-1.4,1
		c-0.4,0.4-0.7,1-0.9,1.6s-0.3,1.3-0.3,2.1c0,0.8,0.1,1.6,0.3,2.2c0.2,0.6,0.5,1.1,0.9,1.5s0.9,0.7,1.5,0.9c0.6,0.2,1.3,0.3,2.1,0.3
		c0.4,0,0.9,0,1.2-0.1c0.4-0.1,0.7-0.1,1-0.2c0.3-0.1,0.5-0.2,0.7-0.2c0.2-0.1,0.3-0.1,0.4-0.2c0,0,0.1-0.1,0.1-0.1
		c0,0,0-0.1,0.1-0.2c0-0.1,0-0.2,0-0.3c0-0.1,0-0.2,0-0.4c0-0.2,0-0.3,0-0.4c0-0.1,0-0.2-0.1-0.3c0-0.1-0.1-0.1-0.1-0.1
		c0,0-0.1,0-0.1,0c-0.1,0-0.2,0-0.4,0.1c-0.2,0.1-0.4,0.1-0.6,0.2c-0.2,0.1-0.5,0.1-0.9,0.2c-0.3,0.1-0.7,0.1-1.2,0.1
		c-0.4,0-0.8-0.1-1.1-0.2s-0.6-0.3-0.8-0.5c-0.2-0.2-0.3-0.5-0.4-0.8c-0.1-0.3-0.1-0.7-0.1-1h5.4c0.2,0,0.4-0.1,0.6-0.2
		c0.1-0.1,0.2-0.4,0.2-0.7v-0.4c0-0.6-0.1-1.2-0.2-1.7C102.4,52.3,102.2,51.9,101.8,51.5z M96.6,54.3c0-0.3,0.1-0.6,0.1-0.9
		c0.1-0.3,0.2-0.5,0.4-0.7s0.4-0.4,0.6-0.5c0.2-0.1,0.5-0.2,0.8-0.2c0.6,0,1.1,0.2,1.4,0.6c0.3,0.4,0.4,1,0.4,1.7H96.6z"/>
	<path class="st0" d="M119.3,50.5h-5.8v-2c0-0.1,0-0.1-0.1-0.2c0-0.1-0.1-0.1-0.2-0.1s-0.2-0.1-0.4-0.1c-0.2,0-0.4,0-0.6,0
		s-0.4,0-0.6,0c-0.2,0-0.3,0-0.4,0.1c-0.1,0-0.2,0.1-0.2,0.1s-0.1,0.1-0.1,0.2v2h-1.1c-0.1,0-0.1,0-0.2,0c0,0-0.1,0.1-0.1,0.2
		c0,0.1-0.1,0.2-0.1,0.3c0,0-0.1-0.1-0.1-0.1c-0.1,0-0.2-0.1-0.3-0.2c-0.1-0.1-0.3-0.1-0.5-0.2c-0.2-0.1-0.5-0.1-0.7-0.2
		c-0.3,0-0.5-0.1-0.8-0.1c-0.6,0-1.1,0.1-1.5,0.2s-0.8,0.3-1.1,0.6c-0.3,0.3-0.6,0.6-0.7,0.9c-0.2,0.4-0.2,0.7-0.2,1.2
		c0,0.4,0.1,0.8,0.2,1.1c0.1,0.3,0.3,0.6,0.5,0.8c0.2,0.2,0.4,0.4,0.7,0.5s0.5,0.3,0.8,0.4c0.3,0.1,0.5,0.2,0.8,0.3
		c0.3,0.1,0.5,0.2,0.7,0.3c0.2,0.1,0.4,0.2,0.5,0.4c0.1,0.1,0.2,0.3,0.2,0.5c0,0.2,0,0.3-0.1,0.5c-0.1,0.1-0.2,0.2-0.3,0.3
		s-0.3,0.2-0.5,0.2c-0.2,0-0.4,0.1-0.6,0.1c-0.4,0-0.7,0-1-0.1c-0.3-0.1-0.5-0.2-0.7-0.3s-0.4-0.2-0.5-0.3c-0.1-0.1-0.3-0.1-0.3-0.1
		c-0.1,0-0.1,0-0.1,0s-0.1,0.1-0.1,0.1c0,0.1,0,0.2-0.1,0.3c0,0.1,0,0.3,0,0.5c0,0.3,0,0.5,0.1,0.7c0,0.2,0.1,0.3,0.2,0.3
		c0.1,0.1,0.2,0.1,0.3,0.2s0.4,0.2,0.6,0.2s0.5,0.1,0.8,0.2c0.3,0.1,0.6,0.1,1,0.1c0.6,0,1.1-0.1,1.5-0.2s0.9-0.3,1.2-0.6
		c0.3-0.3,0.6-0.6,0.8-1c0.2-0.4,0.3-0.8,0.3-1.3c0-0.4-0.1-0.8-0.2-1.1c-0.1-0.3-0.3-0.6-0.5-0.8c-0.2-0.2-0.4-0.4-0.7-0.5
		c-0.3-0.1-0.5-0.3-0.8-0.4c-0.3-0.1-0.5-0.2-0.8-0.3c-0.3-0.1-0.5-0.2-0.7-0.3c-0.2-0.1-0.4-0.2-0.5-0.4s-0.2-0.3-0.2-0.5
		c0-0.1,0-0.3,0.1-0.4s0.1-0.2,0.2-0.3c0.1-0.1,0.2-0.2,0.4-0.2c0.2,0,0.4-0.1,0.6-0.1c0.3,0,0.6,0,0.9,0.1c0.2,0.1,0.5,0.1,0.7,0.2
		c0.2,0.1,0.3,0.2,0.5,0.2c0.1,0.1,0.2,0.1,0.3,0.1c0.1,0,0.1,0,0.1,0c0,0,0.1-0.1,0.1-0.1c0-0.1,0-0.1,0-0.2c0,0,0,0,0,0
		c0.1,0.2,0.2,0.2,0.3,0.2h1.1v4.6c0,0.6,0.1,1,0.2,1.4c0.1,0.4,0.3,0.7,0.5,1c0.2,0.3,0.6,0.4,0.9,0.6c0.4,0.1,0.8,0.2,1.3,0.2
		c0.2,0,0.4,0,0.6,0s0.4-0.1,0.5-0.1c0.2,0,0.3-0.1,0.4-0.1c0.1,0,0.2-0.1,0.3-0.2c0.1-0.1,0.1-0.2,0.1-0.3s0-0.4,0-0.7
		c0-0.2,0-0.3,0-0.5c0-0.1,0-0.2-0.1-0.3c0-0.1,0-0.1-0.1-0.1h-0.1h-0.1c-0.1,0-0.1,0.1-0.2,0.1s-0.2,0.1-0.3,0.1
		c-0.1,0-0.2,0-0.4,0c-0.4,0-0.7-0.1-0.8-0.4c-0.1-0.2-0.2-0.6-0.2-1.1v-4.2h4v7.2c0,0.1,0,0.1,0.1,0.2c0,0,0.1,0.1,0.2,0.1
		c0.1,0,0.2,0.1,0.4,0.1s0.4,0,0.6,0s0.4,0,0.6,0c0.2,0,0.3,0,0.4-0.1c0.1,0,0.2-0.1,0.2-0.1c0-0.1,0.1-0.1,0.1-0.2v-8.5
		c0-0.2-0.1-0.4-0.2-0.5C119.8,50.6,119.6,50.5,119.3,50.5z"/>
	<path class="st0" d="M118.8,46.5c-0.6,0-1,0.1-1.2,0.3c-0.2,0.2-0.3,0.6-0.3,1.1s0.1,0.8,0.3,1c0.2,0.2,0.6,0.3,1.2,0.3
		c0.6,0,0.9-0.1,1.1-0.3c0.2-0.2,0.3-0.6,0.3-1.1s-0.1-0.8-0.3-1S119.3,46.5,118.8,46.5z"/>
	<path class="st0" d="M134.9,51.3c-0.2-0.3-0.6-0.6-1-0.8c-0.4-0.2-0.9-0.3-1.5-0.3c-0.3,0-0.5,0-0.8,0.1s-0.5,0.2-0.7,0.3
		c-0.2,0.1-0.5,0.3-0.8,0.5s-0.5,0.5-0.8,0.7c-0.1-0.2-0.3-0.5-0.4-0.7c-0.2-0.2-0.4-0.4-0.6-0.5c-0.2-0.1-0.5-0.3-0.8-0.3
		c-0.3-0.1-0.6-0.1-1-0.1c-0.5,0-1,0.1-1.5,0.4s-1,0.7-1.5,1.2v-1c0-0.1,0-0.1,0-0.2s-0.1-0.1-0.2-0.1c-0.1,0-0.2-0.1-0.3-0.1
		s-0.3,0-0.5,0c-0.2,0-0.4,0-0.5,0c-0.1,0-0.2,0-0.3,0.1s-0.1,0.1-0.2,0.1s0,0.1,0,0.2v8.9c0,0.1,0,0.1,0.1,0.2c0,0,0.1,0.1,0.2,0.1
		c0.1,0,0.2,0.1,0.4,0.1s0.4,0,0.6,0c0.2,0,0.4,0,0.6,0s0.3,0,0.4-0.1s0.2-0.1,0.2-0.1s0.1-0.1,0.1-0.2v-5.9c0.4-0.4,0.7-0.8,1-1
		c0.3-0.2,0.6-0.3,0.9-0.3c0.2,0,0.4,0,0.6,0.1c0.2,0.1,0.3,0.2,0.4,0.4c0.1,0.2,0.2,0.4,0.3,0.6s0.1,0.5,0.1,0.8v5.3
		c0,0.1,0,0.1,0.1,0.2s0.1,0.1,0.2,0.1s0.2,0.1,0.4,0.1c0.2,0,0.4,0,0.6,0c0.2,0,0.4,0,0.6,0s0.3,0,0.4-0.1c0.1,0,0.2-0.1,0.2-0.1
		s0.1-0.1,0.1-0.2v-5.9c0.4-0.4,0.7-0.8,1-1c0.3-0.2,0.6-0.3,0.9-0.3c0.2,0,0.5,0,0.6,0.1c0.2,0.1,0.3,0.2,0.4,0.4
		c0.1,0.2,0.2,0.4,0.3,0.6s0.1,0.5,0.1,0.8v5.3c0,0.1,0,0.1,0.1,0.2c0,0,0.1,0.1,0.2,0.1c0.1,0,0.2,0.1,0.4,0.1s0.4,0,0.6,0
		c0.2,0,0.4,0,0.6,0c0.2,0,0.3,0,0.4-0.1s0.2-0.1,0.2-0.1c0,0,0.1-0.1,0.1-0.2V54c0-0.5-0.1-1-0.2-1.5
		C135.4,52.1,135.2,51.7,134.9,51.3z"/>
	<path class="st0" d="M144.2,51.5c-0.3-0.4-0.8-0.7-1.3-0.9s-1.2-0.3-1.9-0.3c-0.7,0-1.3,0.1-1.9,0.3s-1,0.6-1.4,1
		c-0.4,0.4-0.7,1-0.9,1.6c-0.2,0.6-0.3,1.3-0.3,2.1c0,0.8,0.1,1.6,0.3,2.2c0.2,0.6,0.5,1.1,0.9,1.5c0.4,0.4,0.9,0.7,1.5,0.9
		c0.6,0.2,1.3,0.3,2.1,0.3c0.4,0,0.9,0,1.2-0.1s0.7-0.1,1-0.2c0.3-0.1,0.5-0.2,0.7-0.2c0.2-0.1,0.3-0.1,0.4-0.2c0,0,0.1-0.1,0.1-0.1
		s0-0.1,0.1-0.2s0-0.2,0-0.3s0-0.2,0-0.4c0-0.2,0-0.3,0-0.4c0-0.1,0-0.2-0.1-0.3c0-0.1-0.1-0.1-0.1-0.1c0,0-0.1,0-0.2,0
		c-0.1,0-0.2,0-0.4,0.1c-0.2,0.1-0.4,0.1-0.6,0.2c-0.2,0.1-0.5,0.1-0.9,0.2c-0.3,0.1-0.7,0.1-1.2,0.1c-0.4,0-0.8-0.1-1.1-0.2
		s-0.6-0.3-0.8-0.5c-0.2-0.2-0.3-0.5-0.4-0.8c-0.1-0.3-0.1-0.7-0.1-1h5.4c0.2,0,0.4-0.1,0.6-0.2c0.1-0.1,0.2-0.4,0.2-0.7v-0.4
		c0-0.6-0.1-1.2-0.2-1.7C144.8,52.3,144.6,51.9,144.2,51.5z M139,54.3c0-0.3,0.1-0.6,0.1-0.9c0.1-0.3,0.2-0.5,0.4-0.7
		s0.4-0.4,0.6-0.5c0.2-0.1,0.5-0.2,0.8-0.2c0.6,0,1.1,0.2,1.4,0.6c0.3,0.4,0.4,1,0.4,1.7H139z"/>
	<path class="st0" d="M154,51.3c-0.3-0.3-0.6-0.6-1-0.8c-0.4-0.2-0.9-0.3-1.5-0.3c-0.6,0-1.1,0.1-1.6,0.4c-0.5,0.3-1,0.7-1.5,1.2v-1
		c0-0.1,0-0.1-0.1-0.2s-0.1-0.1-0.2-0.1s-0.2-0.1-0.3-0.1c-0.1,0-0.3,0-0.5,0c-0.2,0-0.4,0-0.5,0c-0.1,0-0.2,0-0.3,0.1
		c-0.1,0-0.1,0.1-0.2,0.1s0,0.1,0,0.2v8.9c0,0.1,0,0.1,0.1,0.2c0,0,0.1,0.1,0.2,0.1c0.1,0,0.2,0.1,0.4,0.1s0.4,0,0.6,0s0.4,0,0.6,0
		c0.2,0,0.3,0,0.4-0.1s0.2-0.1,0.2-0.1c0,0,0.1-0.1,0.1-0.2v-5.9c0.4-0.4,0.7-0.8,1-1c0.3-0.2,0.6-0.3,1-0.3c0.3,0,0.5,0,0.7,0.1
		c0.2,0.1,0.3,0.2,0.5,0.4c0.1,0.2,0.2,0.4,0.3,0.6c0.1,0.2,0.1,0.6,0.1,1v5.1c0,0.1,0,0.1,0.1,0.2c0,0,0.1,0.1,0.2,0.1
		c0.1,0,0.2,0.1,0.4,0.1s0.4,0,0.6,0c0.2,0,0.4,0,0.6,0c0.2,0,0.3,0,0.4-0.1s0.2-0.1,0.2-0.1c0,0,0.1-0.1,0.1-0.2v-5.5
		c0-0.6-0.1-1.2-0.2-1.7S154.2,51.7,154,51.3z"/>
	<path class="st0" d="M161.1,58.1c0-0.1,0-0.1-0.1-0.1c0,0-0.1,0-0.1,0c0,0-0.1,0-0.2,0c-0.1,0-0.1,0-0.2,0.1
		c-0.1,0-0.2,0.1-0.3,0.1s-0.2,0-0.4,0c-0.4,0-0.7-0.1-0.8-0.4c-0.2-0.2-0.2-0.6-0.2-1.1v-4.2h1.9c0.1,0,0.2-0.1,0.3-0.2
		s0.1-0.4,0.1-0.8c0-0.2,0-0.4,0-0.5c0-0.1,0-0.2-0.1-0.3s-0.1-0.1-0.1-0.2s-0.1,0-0.2,0h-1.9v-2c0-0.1,0-0.1-0.1-0.2
		c0-0.1-0.1-0.1-0.2-0.1c-0.1,0-0.2-0.1-0.4-0.1s-0.4,0-0.6,0c-0.2,0-0.4,0-0.6,0c-0.2,0-0.3,0-0.4,0.1c-0.1,0-0.2,0.1-0.2,0.1
		c0,0.1-0.1,0.1-0.1,0.2v2h-1.1c-0.1,0-0.1,0-0.2,0c0,0-0.1,0.1-0.1,0.2s-0.1,0.2-0.1,0.3c0,0.1,0,0.3,0,0.5c0,0.4,0,0.6,0.1,0.8
		s0.2,0.2,0.3,0.2h1.1v4.6c0,0.5,0.1,1,0.2,1.4c0.1,0.4,0.3,0.7,0.5,1c0.2,0.3,0.5,0.5,0.9,0.6c0.4,0.1,0.8,0.2,1.3,0.2
		c0.2,0,0.4,0,0.6,0c0.2,0,0.4,0,0.5-0.1c0.2,0,0.3-0.1,0.4-0.1c0.1,0,0.2-0.1,0.3-0.2c0.1-0.1,0.1-0.2,0.1-0.3
		c0-0.2,0.1-0.4,0.1-0.7c0-0.2,0-0.3,0-0.5C161.1,58.2,161.1,58.1,161.1,58.1z"/>
	<path class="st0" d="M169.5,51.5c-0.4-0.4-0.9-0.7-1.5-1c-0.6-0.2-1.3-0.3-2.1-0.3c-0.8,0-1.5,0.1-2.1,0.4c-0.6,0.2-1.1,0.6-1.5,1
		c-0.4,0.4-0.7,1-0.9,1.6s-0.3,1.3-0.3,2.1c0,0.8,0.1,1.5,0.3,2.1c0.2,0.6,0.5,1.1,0.9,1.5c0.4,0.4,0.9,0.7,1.5,1s1.3,0.3,2.1,0.3
		c0.8,0,1.5-0.1,2.1-0.4c0.6-0.2,1.1-0.6,1.5-1c0.4-0.5,0.7-1,0.9-1.6c0.2-0.6,0.3-1.3,0.3-2.1c0-0.8-0.1-1.5-0.3-2.1
		C170.2,52.4,169.9,51.9,169.5,51.5z M167.9,56.5c-0.1,0.4-0.2,0.7-0.4,0.9s-0.4,0.5-0.7,0.6c-0.3,0.1-0.6,0.2-1,0.2
		c-0.4,0-0.8-0.1-1-0.2c-0.3-0.1-0.5-0.4-0.7-0.6c-0.2-0.3-0.3-0.6-0.4-1s-0.1-0.8-0.1-1.2c0-0.5,0-0.9,0.1-1.3s0.2-0.7,0.4-0.9
		s0.4-0.5,0.7-0.6c0.3-0.1,0.6-0.2,1-0.2c0.4,0,0.8,0.1,1,0.2c0.3,0.2,0.5,0.4,0.7,0.6c0.2,0.3,0.3,0.6,0.4,1
		c0.1,0.4,0.1,0.8,0.1,1.2C168.1,55.7,168,56.2,167.9,56.5z"/>
	<path class="st0" d="M177.1,55.4c-0.2-0.2-0.4-0.4-0.7-0.5s-0.5-0.3-0.8-0.4c-0.3-0.1-0.5-0.2-0.8-0.3c-0.3-0.1-0.5-0.2-0.7-0.3
		c-0.2-0.1-0.4-0.2-0.5-0.4s-0.2-0.3-0.2-0.5c0-0.1,0-0.3,0.1-0.4c0.1-0.1,0.1-0.2,0.2-0.3c0.1-0.1,0.2-0.2,0.4-0.2
		c0.2,0,0.4-0.1,0.6-0.1c0.3,0,0.6,0,0.9,0.1c0.2,0.1,0.5,0.1,0.7,0.2c0.2,0.1,0.3,0.2,0.5,0.2c0.1,0.1,0.2,0.1,0.3,0.1
		c0.1,0,0.1,0,0.1,0c0,0,0.1-0.1,0.1-0.1s0-0.2,0-0.3c0-0.1,0-0.3,0-0.4c0-0.2,0-0.3,0-0.4c0-0.1,0-0.2,0-0.3c0-0.1,0-0.1-0.1-0.2
		c0,0-0.1-0.1-0.1-0.1c-0.1,0-0.2-0.1-0.3-0.2c-0.1-0.1-0.3-0.1-0.5-0.2c-0.2-0.1-0.5-0.1-0.7-0.2c-0.3,0-0.5-0.1-0.8-0.1
		c-0.6,0-1.1,0.1-1.5,0.2s-0.8,0.3-1.1,0.6c-0.3,0.3-0.6,0.6-0.7,0.9c-0.2,0.4-0.2,0.7-0.2,1.2c0,0.4,0.1,0.8,0.2,1.1
		c0.1,0.3,0.3,0.6,0.5,0.8c0.2,0.2,0.4,0.4,0.7,0.5s0.5,0.3,0.8,0.4c0.3,0.1,0.5,0.2,0.8,0.3c0.3,0.1,0.5,0.2,0.7,0.3
		s0.4,0.2,0.5,0.4c0.1,0.1,0.2,0.3,0.2,0.5c0,0.2,0,0.3-0.1,0.5c-0.1,0.1-0.2,0.2-0.3,0.3c-0.1,0.1-0.3,0.2-0.5,0.2
		c-0.2,0-0.4,0.1-0.6,0.1c-0.4,0-0.7,0-1-0.1c-0.3-0.1-0.5-0.2-0.7-0.3s-0.4-0.2-0.5-0.3c-0.1-0.1-0.3-0.1-0.3-0.1
		c-0.1,0-0.1,0-0.2,0c0,0-0.1,0.1-0.1,0.1c0,0.1,0,0.2-0.1,0.3c0,0.1,0,0.3,0,0.5c0,0.3,0,0.5,0.1,0.7c0,0.2,0.1,0.3,0.2,0.3
		c0.1,0.1,0.2,0.1,0.3,0.2c0.2,0.1,0.4,0.2,0.6,0.2s0.5,0.1,0.8,0.2c0.3,0.1,0.6,0.1,1,0.1c0.6,0,1.1-0.1,1.5-0.2s0.9-0.3,1.2-0.6
		c0.3-0.3,0.6-0.6,0.8-1s0.3-0.8,0.3-1.3c0-0.4-0.1-0.8-0.2-1.1C177.5,55.8,177.3,55.6,177.1,55.4z"/>
</g>
<ellipse class="st1" cx="34.7" cy="33.4" rx="31.4" ry="31.4"/>
<ellipse class="st2" cx="34.7" cy="33.4" rx="31.4" ry="31.4"/>
<path class="st3" d="M4.9,38.4c1.7,9.2,6.7,16.8,16.4,22C31,28,61.4,49.8,50.8,17.4c-0.3-1.3,0.4-1.9,1.8-1.4
	c4.8,1.9,7.2,1.8,5.2-2.3c-1.2-1.4-2.4-2.6-3.8-3.7c1.2,2.9,0.5,3.7-1.7,2.7c-5.8-2.8-7.9-2.2-6.1,1.9C55.4,37,21.6,17.9,4.9,38.4"
	/>
</svg>
